# xmcd CD database file
#
# Track frame offsets:
#	150
#	21112
#	42674
#	81486
#	104811
#	129148
#	158510
#	180822
#	203847
#	230172
#	257022
#
# Disc length: 3882 seconds
#
# Revision: 0
# Processed by: cddbd v1.5.2PL0 Copyright (c) Steve Scherf et al.
# Submitted via: CDex 1.70beta2
#
DISCID=8d0f280b
DTITLE=Mount George Blues Revolution - Jazz in der Mitte Live - Set 3
DYEAR=2008
DGENRE=Blues
TTITLE0=Crossroads
TTITLE1=Jailhouse Rock
TTITLE2=Riot in cell block No. 9
TTITLE3=Mercury Blues
TTITLE4=I know a little
TTITLE5=Shake your money maker
TTITLE6=Old Time Rock'n'Roll
TTITLE7=Mustang Sally
TTITLE8=Tulsa Time
TTITLE9=The Thrill is gone
TTITLE10=Let the good times roll
EXTD=YEAR: 2008
EXTT0=
EXTT1=
EXTT2=
EXTT3=
EXTT4=
EXTT5=
EXTT6=
EXTT7=
EXTT8=
EXTT9=
EXTT10=
PLAYORDER=
